<?xml version="1.0" encoding="utf-8"?>
<!-- Generator: Adobe Illustrator 24.3.0, SVG Export Plug-In . SVG Version: 6.00 Build 0)  -->
<svg version="1.1" id="Layer_1" xmlns="http://www.w3.org/2000/svg" xmlns:xlink="http://www.w3.org/1999/xlink" x="0px"
    y="0px" viewBox="0 0 1016.2 167.5" style="enable-background:new 0 0 1016.2 167.5;" xml:space="preserve">
    <style type="text/css">
        .st0 {
            fill: #FFFFFF;
        }
    </style>
    <g>
        <path class="st0"
            d="M129.4,109.6c0,22.3-17.6,42.1-44.6,42.1c-25.2,0-41.6-18-44.6-23l16-20.2c9,11.7,18.5,17.3,28.6,17.3
		c10.3,0,15.8-7.7,15.8-14.4c0-8.6-4.5-13-14.4-16.7c-25.9-9.9-38.9-19.6-38.9-40.5C47.3,33,65.1,19.3,88,19.3c4,0,19.3-0.7,35.3,14
		l-15.5,21.2c-3.6-3.8-11.2-9.4-20.2-9.4c-7,0-11.5,4.5-11.5,8.5c0,4.9,2.5,8.5,11.5,11.9C109.2,73.8,129.4,80.8,129.4,109.6z" />
        <path class="st0" d="M272.4,85.5c0,36.5-30.2,66.2-67.7,66.2s-67.7-29.7-67.7-66.2s30.2-66.2,67.7-66.2S272.4,49,272.4,85.5z
		 M243.7,85.5c0-22.3-17.5-40.3-38.9-40.3s-38.9,18-38.9,40.3s17.5,40.3,38.9,40.3S243.7,107.8,243.7,85.5z" />
        <path class="st0" d="M313.3,22.2V123h43.2v25.9h-72V22.2H313.3z" />
        <path class="st0" d="M371.4,148.9V22.2h28.8v126.7H371.4z" />
        <path class="st0" d="M517.4,85.5c0,33.5-23,63.3-66.4,63.3h-31.5V22.2H451C495.4,22.2,517.4,52.1,517.4,85.5z M488.6,85.5
		c0-19.1-13-37.4-35.6-37.4h-4.7V123h4.7C475.6,123,488.6,104.6,488.6,85.5z" />
        <path class="st0" d="M633.1,22.2l-60.5,129.6L512.1,22.2h31.7l28.8,67.7l28.8-67.7H633.1z" />
        <path class="st0" d="M688.1,134.5h-45.7l-5.9,14.4h-31.7l60.5-129.6l60.5,129.6h-31.7L688.1,134.5z M677.7,108.6l-12.4-30.2
		l-12.4,30.2H677.7z" />
        <path class="st0" d="M825.6,22.2v79.2c0,32.8-19.1,50.4-46.1,50.4c-27.7,0-46.1-17.6-46.1-50.4V22.2h28.8v82.1
		c0,16,8.6,21.6,17.3,21.6c7.9,0,17.3-5.8,17.3-21.6V22.2H825.6z" />
        <path class="st0" d="M873.7,22.2V123h43.2v25.9h-72V22.2H873.7z" />
        <path class="st0" d="M992.3,22.2v25.9h-25.9v100.8h-28.8V48.1h-25.9V22.2H992.3z" />
    </g>
</svg>
