<svg id="Layer_1" data-name="Layer 1" xmlns="http://www.w3.org/2000/svg" viewBox="0 0 525 165">
    <defs>
        <style>
            .cls-1 {
                fill: #f7f5f4;
            }

            .cls-2 {
                fill: #d4202b;
            }
        </style>
    </defs>
    <path class="cls-1"
        d="M58.49,96c0,11.77-9.3,22.21-23.54,22.21C21.66,118.19,13,108.7,11.41,106l8.45-10.63c4.75,6.17,9.78,9.11,15.09,9.11s8.35-4.08,8.35-7.59c0-4.56-2.37-6.83-7.59-8.83C22,82.88,15.21,77.76,15.21,66.75c0-11.2,9.4-18.41,21.45-18.41,2.09,0,10.15-.38,18.6,7.4L47.1,66.94c-1.9-2-5.89-4.94-10.63-4.94-3.7,0-6.08,2.38-6.08,4.46,0,2.57,1.33,4.46,6.08,6.27C47.86,77.09,58.49,80.79,58.49,96Z" />
    <path class="cls-1"
        d="M133.94,83.26c0,19.27-15.94,34.93-35.68,34.93S62.57,102.53,62.57,83.26,78.51,48.34,98.26,48.34,133.94,64,133.94,83.26Zm-15.18,0c0-11.77-9.21-21.26-20.5-21.26s-20.5,9.49-20.5,21.26,9.2,21.26,20.5,21.26S118.76,95,118.76,83.26Z" />
    <path class="cls-1" d="M155.49,49.85V103h22.78v13.67h-38V49.85Z" />
    <path class="cls-1" d="M186.14,116.67V49.85h15.19v66.82Z" />
    <path class="cls-1"
        d="M263.11,83.26c0,17.66-12.14,33.41-35,33.41H211.48V49.85h16.61C251.54,49.85,263.11,65.61,263.11,83.26Zm-15.18,0c0-10.06-6.83-19.74-18.79-19.74h-2.47V103h2.47C241.1,103,247.93,93.32,247.93,83.26Z" />
    <path class="cls-2" d="M324.14,49.85l-31.89,68.34L260.36,49.85h16.71l15.18,35.69,15.19-35.69Z" />
    <path class="cls-2"
        d="M353.19,109.08H329.08L326,116.67H309.24l31.89-68.33L373,116.67h-16.7Zm-5.51-13.67-6.55-15.94-6.54,15.94Z" />
    <path class="cls-2"
        d="M425.7,49.85V91.61c0,17.28-10.06,26.58-24.3,26.58-14.61,0-24.29-9.3-24.29-26.58V49.85h15.18V93.13c0,8.45,4.56,11.39,9.11,11.39,4.18,0,9.11-3,9.11-11.39V49.85Z" />
    <path class="cls-2" d="M451,49.85V103h22.78v13.67h-38V49.85Z" />
    <path class="cls-2" d="M513.59,49.85V63.52H499.92v53.15H484.73V63.52H471.07V49.85Z" />
</svg>
