<svg id="Layer_1" data-name="Layer 1" xmlns="http://www.w3.org/2000/svg" viewBox="0 0 525 165">
	<defs>
		<style>
			.cls-1 {
				fill: #201e5a;
			}

			.cls-2 {
				fill: #d4202b;
			}
		</style>
	</defs>
	<path class="cls-1"
		d="M58.49,95.22c0,11.77-9.3,22.21-23.54,22.21-13.29,0-21.92-9.49-23.54-12.15l8.45-10.63c4.75,6.17,9.78,9.11,15.09,9.11s8.35-4.08,8.35-7.59c0-4.56-2.37-6.84-7.59-8.83C22,82.12,15.21,77,15.21,66c0-11.2,9.4-18.42,21.45-18.42,2.09,0,10.15-.37,18.6,7.41L47.1,66.18c-1.9-2-5.89-4.94-10.63-4.94-3.7,0-6.08,2.37-6.08,4.46,0,2.57,1.33,4.46,6.08,6.27C47.86,76.33,58.49,80,58.49,95.22Z" />
	<path class="cls-1"
		d="M133.94,82.5c0,19.27-15.94,34.93-35.68,34.93S62.57,101.77,62.57,82.5,78.51,47.57,98.26,47.57,133.94,63.23,133.94,82.5Zm-15.18,0c0-11.77-9.21-21.26-20.5-21.26s-20.5,9.49-20.5,21.26,9.2,21.26,20.5,21.26S118.76,94.27,118.76,82.5Z" />
	<path class="cls-1" d="M155.49,49.09v53.15h22.78v13.67h-38V49.09Z" />
	<path class="cls-1" d="M186.14,115.91V49.09h15.19v66.82Z" />
	<path class="cls-1"
		d="M263.11,82.5c0,17.65-12.14,33.41-35,33.41H211.48V49.09h16.61C251.54,49.09,263.11,64.85,263.11,82.5Zm-15.18,0c0-10.06-6.83-19.74-18.79-19.74h-2.47v39.48h2.47C241.1,102.24,247.93,92.56,247.93,82.5Z" />
	<path class="cls-2" d="M324.14,49.09l-31.89,68.34L260.36,49.09h16.71l15.18,35.69,15.19-35.69Z" />
	<path class="cls-2"
		d="M353.19,108.32H329.08L326,115.91H309.24l31.89-68.34L373,115.91h-16.7Zm-5.51-13.67-6.55-15.94-6.54,15.94Z" />
	<path class="cls-2"
		d="M425.7,49.09V90.85c0,17.28-10.06,26.58-24.3,26.58-14.61,0-24.29-9.3-24.29-26.58V49.09h15.18V92.37c0,8.45,4.56,11.39,9.11,11.39,4.18,0,9.11-3,9.11-11.39V49.09Z" />
	<path class="cls-2" d="M451,49.09v53.15h22.78v13.67h-38V49.09Z" />
	<path class="cls-2" d="M513.59,49.09V62.76H499.92v53.15H484.73V62.76H471.07V49.09Z" />
	<path class="cls-1"
		d="M58.49,94.46c0,11.77-9.3,22.21-23.54,22.21-13.29,0-21.92-9.49-23.54-12.15l8.45-10.63C24.61,100.06,29.64,103,35,103s8.35-4.08,8.35-7.59c0-4.55-2.37-6.83-7.59-8.83C22,81.36,15.21,76.24,15.21,65.23c0-11.2,9.4-18.41,21.45-18.41,2.09,0,10.15-.38,18.6,7.4L47.1,65.42c-1.9-2-5.89-4.94-10.63-4.94-3.7,0-6.08,2.38-6.08,4.46,0,2.57,1.33,4.47,6.08,6.27C47.86,75.57,58.49,79.28,58.49,94.46Z" />
	<path class="cls-1"
		d="M133.94,81.74c0,19.27-15.94,34.93-35.68,34.93S62.57,101,62.57,81.74,78.51,46.82,98.26,46.82,133.94,62.48,133.94,81.74Zm-15.18,0c0-11.77-9.21-21.26-20.5-21.26S77.76,70,77.76,81.74,87,103,98.26,103,118.76,93.51,118.76,81.74Z" />
	<path class="cls-1" d="M155.49,48.34v53.14h22.78v13.67h-38V48.34Z" />
	<path class="cls-1" d="M186.14,115.15V48.34h15.19v66.81Z" />
	<path class="cls-1"
		d="M263.11,81.74c0,17.66-12.14,33.41-35,33.41H211.48V48.34h16.61C251.54,48.34,263.11,64.09,263.11,81.74Zm-15.18,0c0-10.06-6.83-19.74-18.79-19.74h-2.47v39.48h2.47C241.1,101.48,247.93,91.8,247.93,81.74Z" />
	<path class="cls-2" d="M324.14,48.34l-31.89,68.33L260.36,48.34h16.71L292.25,84l15.19-35.68Z" />
	<path class="cls-2"
		d="M353.19,107.56H329.08L326,115.15H309.24l31.89-68.33L373,115.15h-16.7Zm-5.51-13.67L341.13,78l-6.54,15.94Z" />
	<path class="cls-2"
		d="M425.7,48.34V90.1c0,17.27-10.06,26.57-24.3,26.57-14.61,0-24.29-9.3-24.29-26.57V48.34h15.18V91.61c0,8.45,4.56,11.39,9.11,11.39,4.18,0,9.11-3,9.11-11.39V48.34Z" />
	<path class="cls-2" d="M451,48.34v53.14h22.78v13.67h-38V48.34Z" />
	<path class="cls-2" d="M513.59,48.34V62H499.92v53.15H484.73V62H471.07V48.34Z" />
</svg>
